{
  "accessors": [
    {
      "bufferView": 2,
      "componentType": 5126,
      "count": 65532,
      "max": [
        13.124054908752441,
        20.651103973388672,
        5.000000476837158
      ],
      "min": [
        -11.352739334106445,
        -21.24536895751953,
        -54.314048767089844
      ],
      "type": "VEC3"
    },
    {
      "bufferView": 2,
      "byteOffset": 786384,
      "componentType": 5126,
      "count": 65532,
      "max": [
        1.0,
        1.0,
        1.0
      ],
      "min": [
        -1.0,
        -1.0,
        -1.0
      ],
      "type": "VEC3"
    },
    {
      "bufferView": 3,
      "componentType": 5126,
      "count": 65532,
      "max": [
        1.0,
        1.0,
        0.999999463558197,
        1.0
      ],
      "min": [
        -0.9999947547912598,
        -0.9999985098838806,
        -1.0,
        -1.0
      ],
      "type": "VEC4"
    },
    {
      "bufferView": 1,
      "componentType": 5126,
      "count": 65532,
      "max": [
        0.9888198971748352,
        0.9966942071914673
      ],
      "min": [
        0.0005000000237487257,
        0.006261410191655159
      ],
      "type": "VEC2"
    },
    {
      "bufferView": 0,
      "componentType": 5125,
      "count": 358536,
      "type": "SCALAR"
    },
    {
      "bufferView": 2,
      "byteOffset": 1572768,
      "componentType": 5126,
      "count": 37725,
      "max": [
        12.067084312438965,
        40.30814743041992,
        4.998051643371582
      ],
      "min": [
        -14.517226219177246,
        -14.829887390136719,
        -54.75478744506836
      ],
      "type": "VEC3"
    },
    {
      "bufferView": 2,
      "byteOffset": 2025468,
      "componentType": 5126,
      "count": 37725,
      "max": [
        0.9999997615814209,
        1.0,
        0.9999949336051941
      ],
      "min": [
        -0.9999997615814209,
        -1.0,
        -1.0
      ],
      "type": "VEC3"
    },
    {
      "bufferView": 3,
      "byteOffset": 1048512,
      "componentType": 5126,
      "count": 37725,
      "max": [
        0.999992847442627,
        1.0,
        0.9999995231628418,
        1.0
      ],
      "min": [
        -0.9999954700469971,
        -0.9999991059303284,
        -0.9999986290931702,
        -1.0
      ],
      "type": "VEC4"
    },
    {
      "bufferView": 1,
      "byteOffset": 524256,
      "componentType": 5126,
      "count": 37725,
      "max": [
        0.999500036239624,
        0.9945418238639832
      ],
      "min": [
        0.0005000000237487257,
        0.0005000000237487257
      ],
      "type": "VEC2"
    },
    {
      "bufferView": 0,
      "byteOffset": 1434144,
      "componentType": 5125,
      "count": 204912,
      "type": "SCALAR"
    }
  ],
  "asset": {
    "extras": {
      "author": "omarelone (https://sketchfab.com/omarelone)",
      "license": "CC-BY-4.0 (http://creativecommons.org/licenses/by/4.0/)",
      "source": "https://sketchfab.com/3d-models/audiotechnica-black-headphones-c7d3e24c0362414f8423f02755e33199",
      "title": "Audiotechnica black Headphones"
    },
    "generator": "Sketchfab-12.66.0",
    "version": "2.0"
  },
  "bufferViews": [
    {
      "buffer": 0,
      "byteLength": 2253792,
      "name": "floatBufferViews",
      "target": 34963
    },
    {
      "buffer": 0,
      "byteLength": 826056,
      "byteOffset": 2253792,
      "byteStride": 8,
      "name": "floatBufferViews",
      "target": 34962
    },
    {
      "buffer": 0,
      "byteLength": 2478168,
      "byteOffset": 3079848,
      "byteStride": 12,
      "name": "floatBufferViews",
      "target": 34962
    },
    {
      "buffer": 0,
      "byteLength": 1652112,
      "byteOffset": 5558016,
      "byteStride": 16,
      "name": "floatBufferViews",
      "target": 34962
    }
  ],
  "buffers": [
    {
      "byteLength": 7210128,
      "uri": "scene.bin"
    }
  ],
  "images": [
    {
      "uri": "textures/Scene_-_Root_baseColor.jpeg"
    },
    {
      "uri": "textures/Scene_-_Root_metallicRoughness.png"
    },
    {
      "uri": "textures/Scene_-_Root_normal.png"
    }
  ],
  "materials": [
    {
      "doubleSided": true,
      "name": "Scene_-_Root",
      "normalTexture": {
        "index": 2
      },
      "pbrMetallicRoughness": {
        "baseColorTexture": {
          "index": 0
        },
        "metallicFactor": 0.0,
        "metallicRoughnessTexture": {
          "index": 1
        }
      }
    }
  ],
  "meshes": [
    {
      "name": "Sponge002__0",
      "primitives": [
        {
          "attributes": {
            "NORMAL": 1,
            "POSITION": 0,
            "TANGENT": 2,
            "TEXCOORD_0": 3
          },
          "indices": 4,
          "material": 0,
          "mode": 4
        }
      ]
    },
    {
      "name": "Sponge002__0",
      "primitives": [
        {
          "attributes": {
            "NORMAL": 6,
            "POSITION": 5,
            "TANGENT": 7,
            "TEXCOORD_0": 8
          },
          "indices": 9,
          "material": 0,
          "mode": 4
        }
      ]
    }
  ],
  "nodes": [
    {
      "children": [
        1
      ],
      "matrix": [
        0.002248415887873445,
        -9.58738190008992e-19,
        0.00431777295527036,
        0.0,
        0.00431777295527036,
        4.992486175300226e-19,
        -0.002248415887873445,
        0.0,
        0.0,
        0.0048681143671274185,
        1.0809385313786765e-18,
        0.0,
        -1.7263866662979126,
        1.7749435901641848,
        -1.4233623743057247,
        1.0
      ],
      "name": "Sketchfab_model"
    },
    {
      "children": [
        2
      ],
      "matrix": [
        1.0,
        0.0,
        0.0,
        0.0,
        0.0,
        0.0,
        1.0,
        0.0,
        0.0,
        -1.0,
        0.0,
        0.0,
        0.0,
        0.0,
        0.0,
        1.0
      ],
      "name": "2195e519f5074b7d9438783bac811a5d.fbx"
    },
    {
      "children": [
        3
      ],
      "name": "RootNode"
    },
    {
      "children": [
        4,
        5
      ],
      "matrix": [
        0.9659258486047988,
        -0.25488690488705773,
        0.04494352805683875,
        -0.0,
        0.2588189618190386,
        0.9512512892856806,
        -0.16773112303697763,
        -0.0,
        1.2220498952011938e-07,
        -0.17364806462908433,
        -0.9848077729438159,
        -0.0,
        0.001886775717139244,
        -2.728153705596924,
        -23.47295570373535,
        1.0
      ],
      "name": "Sponge002"
    },
    {
      "mesh": 0,
      "name": "Sponge002__0"
    },
    {
      "mesh": 1,
      "name": "Sponge002__0"
    }
  ],
  "samplers": [
    {
      "magFilter": 9729,
      "minFilter": 9987,
      "wrapS": 10497,
      "wrapT": 10497
    }
  ],
  "scene": 0,
  "scenes": [
    {
      "name": "Sketchfab_Scene",
      "nodes": [
        0
      ]
    }
  ],
  "textures": [
    {
      "sampler": 0,
      "source": 0
    },
    {
      "sampler": 0,
      "source": 1
    },
    {
      "sampler": 0,
      "source": 2
    }
  ]
}
