{
  "asset": {
    "generator": "Khronos glTF Blender I/O v4.2.70",
    "version": "2.0"
  },
  "scene": 0,
  "scenes": [
    {
      "name": "Scene",
      "nodes": [7]
    }
  ],
  "nodes": [
    {
      "mesh": 0,
      "name": "Headband",
      "scale": [0.06507556885480881, 0.06507556885480881, 0.06507556885480881],
      "translation": [0, -0.6609466075897217, 0]
    },
    {
      "mesh": 1,
      "name": "Headband padding",
      "scale": [0.06507556885480881, 0.06507556885480881, 0.06507556885480881],
      "translation": [0, -0.6609466075897217, 0]
    },
    {
      "name": "Empty",
      "scale": [0.06060130521655083, 0.06060130521655083, 0.06060130521655083],
      "translation": [0, -0.6609466075897217, 0]
    },
    {
      "mesh": 2,
      "name": "Ear cushion",
      "translation": [0, 0.02576252818107605, 0]
    },
    {
      "children": [3],
      "mesh": 3,
      "name": "Ear piece",
      "rotation": [0, 0, -0.7071068286895752, 0.7071068286895752],
      "scale": [1.4198561906814575, 1.4198561906814575, 1.4198558330535889],
      "translation": [0.32347261905670166, 0, 0]
    },
    {
      "mesh": 4,
      "name": "Joint",
      "rotation": [0, 0, -0.7071068286895752, 0.7071068286895752],
      "scale": [1.4198561906814575, 1.4198561906814575, 1.4198558330535889],
      "translation": [0.33897316455841064, 0, 0]
    },
    {
      "children": [4, 5],
      "name": "Empty.001",
      "rotation": [0, 0, -0.26016131043434143, 0.9655652642250061],
      "scale": [0.2954043745994568, 0.2954043745994568, 0.2954043745994568],
      "translation": [0.5872983336448669, -0.6609466075897217, 0]
    },
    {
      "children": [0, 1, 2, 6],
      "name": "Empty.003",
      "scale": [2.384178638458252, 2.384178638458252, 2.384178638458252],
      "translation": [0, 1.5758144855499268, 0]
    }
  ],
  "materials": [
    {
      "doubleSided": true,
      "name": "Material",
      "pbrMetallicRoughness": {
        "baseColorFactor": [0.800000011920929, 0.800000011920929, 0.800000011920929, 1],
        "metallicFactor": 0,
        "roughnessFactor": 0.5
      }
    }
  ],
  "meshes": [
    {
      "name": "Mesh",
      "primitives": [
        {
          "attributes": {
            "POSITION": 0,
            "NORMAL": 1,
            "TEXCOORD_0": 2
          },
          "indices": 3,
          "material": 0
        }
      ]
    },
    {
      "name": "Cube.001",
      "primitives": [
        {
          "attributes": {
            "POSITION": 4,
            "NORMAL": 5,
            "TEXCOORD_0": 6
          },
          "indices": 7,
          "material": 0
        }
      ]
    },
    {
      "name": "Circle.005",
      "primitives": [
        {
          "attributes": {
            "POSITION": 8,
            "NORMAL": 9,
            "TEXCOORD_0": 10
          },
          "indices": 11,
          "material": 0
        }
      ]
    },
    {
      "name": "Circle.003",
      "primitives": [
        {
          "attributes": {
            "POSITION": 12,
            "NORMAL": 13,
            "TEXCOORD_0": 14
          },
          "indices": 15,
          "material": 0
        }
      ]
    },
    {
      "name": "Mesh",
      "primitives": [
        {
          "attributes": {
            "POSITION": 16,
            "NORMAL": 17,
            "TEXCOORD_0": 18
          },
          "indices": 19,
          "material": 0
        }
      ]
    }
  ],
  "accessors": [
    {
      "bufferView": 0,
      "componentType": 5126,
      "count": 1926,
      "max": [15.217930793762207, 26.19700813293457, 2.3142035007476807],
      "min": [-15.217930793762207, 8.011183738708496, -2.314204692840576],
      "type": "VEC3"
    },
    {
      "bufferView": 1,
      "componentType": 5126,
      "count": 1926,
      "type": "VEC3"
    },
    {
      "bufferView": 2,
      "componentType": 5126,
      "count": 1926,
      "type": "VEC2"
    },
    {
      "bufferView": 3,
      "componentType": 5123,
      "count": 9120,
      "type": "SCALAR"
    },
    {
      "bufferView": 4,
      "componentType": 5126,
      "count": 46867,
      "max": [14.526448249816895, 25.53339195251465, 2.290346145629883],
      "min": [-14.51708698272705, 9.244499206542969, -2.291593313217163],
      "type": "VEC3"
    },
    {
      "bufferView": 5,
      "componentType": 5126,
      "count": 46867,
      "type": "VEC3"
    },
    {
      "bufferView": 6,
      "componentType": 5126,
      "count": 46867,
      "type": "VEC2"
    },
    {
      "bufferView": 7,
      "componentType": 5123,
      "count": 281088,
      "type": "SCALAR"
    },
    {
      "bufferView": 8,
      "componentType": 5126,
      "count": 1572864,
      "max": [1.8537733554840088, -0.26019594073295593, 1.077762246131897],
      "min": [-1.0782932043075562, -3.531136989593506, -1.0779067277908325],
      "type": "VEC3"
    },
    {
      "bufferView": 9,
      "componentType": 5126,
      "count": 1572864,
      "type": "VEC3"
    },
    {
      "bufferView": 10,
      "componentType": 5126,
      "count": 1572864,
      "type": "VEC2"
    },
    {
      "bufferView": 11,
      "componentType": 5125,
      "count": 9437184,
      "type": "SCALAR"
    },
    {
      "bufferView": 12,
      "componentType": 5126,
      "count": 4656,
      "max": [2.2077889442443848, 0.24907803535461426, 0.9886420369148254],
      "min": [-0.9886420369148254, -3.6102113723754883, -0.988642156124115],
      "type": "VEC3"
    },
    {
      "bufferView": 13,
      "componentType": 5126,
      "count": 4656,
      "type": "VEC3"
    },
    {
      "bufferView": 14,
      "componentType": 5126,
      "count": 4656,
      "type": "VEC2"
    },
    {
      "bufferView": 15,
      "componentType": 5123,
      "count": 27336,
      "type": "SCALAR"
    },
    {
      "bufferView": 16,
      "componentType": 5126,
      "count": 5092,
      "max": [1.8412249088287354, 0.22839370369911194, 0.9586212635040283],
      "min": [-1.4950677156448364, -3.990795373916626, -0.9586212038993835],
      "type": "VEC3"
    },
    {
      "bufferView": 17,
      "componentType": 5126,
      "count": 5092,
      "type": "VEC3"
    },
    {
      "bufferView": 18,
      "componentType": 5126,
      "count": 5092,
      "type": "VEC2"
    },
    {
      "bufferView": 19,
      "componentType": 5123,
      "count": 30528,
      "type": "SCALAR"
    }
  ],
  "bufferViews": [
    {
      "buffer": 0,
      "byteLength": 23112,
      "byteOffset": 0,
      "target": 34962
    },
    {
      "buffer": 0,
      "byteLength": 23112,
      "byteOffset": 23112,
      "target": 34962
    },
    {
      "buffer": 0,
      "byteLength": 15408,
      "byteOffset": 46224,
      "target": 34962
    },
    {
      "buffer": 0,
      "byteLength": 18240,
      "byteOffset": 61632,
      "target": 34963
    },
    {
      "buffer": 0,
      "byteLength": 562404,
      "byteOffset": 79872,
      "target": 34962
    },
    {
      "buffer": 0,
      "byteLength": 562404,
      "byteOffset": 642276,
      "target": 34962
    },
    {
      "buffer": 0,
      "byteLength": 374936,
      "byteOffset": 1204680,
      "target": 34962
    },
    {
      "buffer": 0,
      "byteLength": 562176,
      "byteOffset": 1579616,
      "target": 34963
    },
    {
      "buffer": 0,
      "byteLength": 18874368,
      "byteOffset": 2141792,
      "target": 34962
    },
    {
      "buffer": 0,
      "byteLength": 18874368,
      "byteOffset": 21016160,
      "target": 34962
    },
    {
      "buffer": 0,
      "byteLength": 12582912,
      "byteOffset": 39890528,
      "target": 34962
    },
    {
      "buffer": 0,
      "byteLength": 37748736,
      "byteOffset": 52473440,
      "target": 34963
    },
    {
      "buffer": 0,
      "byteLength": 55872,
      "byteOffset": 90222176,
      "target": 34962
    },
    {
      "buffer": 0,
      "byteLength": 55872,
      "byteOffset": 90278048,
      "target": 34962
    },
    {
      "buffer": 0,
      "byteLength": 37248,
      "byteOffset": 90333920,
      "target": 34962
    },
    {
      "buffer": 0,
      "byteLength": 54672,
      "byteOffset": 90371168,
      "target": 34963
    },
    {
      "buffer": 0,
      "byteLength": 61104,
      "byteOffset": 90425840,
      "target": 34962
    },
    {
      "buffer": 0,
      "byteLength": 61104,
      "byteOffset": 90486944,
      "target": 34962
    },
    {
      "buffer": 0,
      "byteLength": 40736,
      "byteOffset": 90548048,
      "target": 34962
    },
    {
      "buffer": 0,
      "byteLength": 61056,
      "byteOffset": 90588784,
      "target": 34963
    }
  ],
  "buffers": [
    {
      "byteLength": 90649840,
      "uri": "scene.bin"
    }
  ]
}
